<?xml version="1.0" encoding="iso-8859-1"?>
<!-- Generator: Adobe Illustrator 19.0.0, SVG Export Plug-In . SVG Version: 6.00 Build 0)  -->
<svg version="1.1" id="Capa_1" xmlns="http://www.w3.org/2000/svg" xmlns:xlink="http://www.w3.org/1999/xlink" x="0px" y="0px"
	 viewBox="0 0 512.001 512.001" style="enable-background:new 0 0 512.001 512.001;" xml:space="preserve">
<g>
	<g>
		<path d="M504.53,375.058h-14.984V111.17c0-16.925-13.77-30.695-30.696-30.695H53.149c-16.926,0-30.696,13.77-30.696,30.695
			v263.889H7.47c-4.125,0-7.47,3.344-7.47,7.47v8.943c0,22.086,17.968,40.054,40.054,40.054h327.989c4.125,0,7.47-3.344,7.47-7.469
			c0-4.126-3.344-7.47-7.47-7.47H40.054c-13.849,0-25.115-11.267-25.115-25.115v-1.474h178.32v13.294c0,4.126,3.344,7.47,7.47,7.47
			h110.543c4.125,0,7.47-3.344,7.47-7.47v-13.294h178.32v1.474c0,13.849-11.267,25.115-25.115,25.115h-51.118
			c-4.125,0-7.47,3.344-7.47,7.47c0,4.126,3.344,7.469,7.47,7.469h51.118c22.086,0,40.054-17.969,40.054-40.054v-8.943
			C512,378.402,508.656,375.058,504.53,375.058z M303.802,395.822h-95.604v-5.825h95.604V395.822z M474.608,374.428H37.393V111.17
			c0-8.688,7.068-15.756,15.757-15.756h405.701c8.688,0,15.757,7.068,15.757,15.756V374.428z"/>
	</g>
</g>
<g>
	<g>
		<path d="M440.307,109.615H71.693c-12.182,0-22.093,9.911-22.093,22.094v79.475c0,4.126,3.344,7.47,7.47,7.47s7.47-3.344,7.47-7.47
			v-79.475c0-3.945,3.209-7.154,7.153-7.154h368.613c3.944,0,7.153,3.21,7.153,7.154v214.509H64.54v-81.254
			c0-4.126-3.344-7.47-7.47-7.47s-7.47,3.344-7.47,7.47v88.723c0,4.126,3.344,7.47,7.47,7.47h397.86c4.125,0,7.47-3.344,7.47-7.47
			V131.708C462.399,119.525,452.488,109.615,440.307,109.615z"/>
	</g>
</g>
<g>
</g>
<g>
</g>
<g>
</g>
<g>
</g>
<g>
</g>
<g>
</g>
<g>
</g>
<g>
</g>
<g>
</g>
<g>
</g>
<g>
</g>
<g>
</g>
<g>
</g>
<g>
</g>
<g>
</g>
</svg>
