<?xml version="1.0" encoding="iso-8859-1"?>
<!-- Generator: Adobe Illustrator 16.0.0, SVG Export Plug-In . SVG Version: 6.00 Build 0)  -->
<!DOCTYPE svg PUBLIC "-//W3C//DTD SVG 1.1//EN" "http://www.w3.org/Graphics/SVG/1.1/DTD/svg11.dtd">
<svg version="1.1" id="Capa_1" xmlns="http://www.w3.org/2000/svg" xmlns:xlink="http://www.w3.org/1999/xlink" x="0px" y="0px"
	 width="35.002px" height="35.002px" viewBox="0 0 35.002 35.002" style="enable-background:new 0 0 35.002 35.002;"
	 xml:space="preserve">
<g>
	<path d="M19.831,27.266v4.479H7.14V10.088h5.439v-1.15H7.676c-0.968,0-1.761,0.792-1.761,1.76v22.544
		c0,0.969,0.793,1.76,1.761,1.76h11.62c0.969,0,1.762-0.791,1.762-1.76v-5.977H19.831L19.831,27.266z M10.898,33.73H9.413
		c-0.272,0-0.495-0.224-0.495-0.496s0.223-0.495,0.495-0.495h1.486c0.273,0,0.495,0.223,0.495,0.495
		C11.394,33.508,11.171,33.73,10.898,33.73z M13.484,34.12c-0.486,0-0.88-0.396-0.88-0.88c0-0.486,0.395-0.881,0.88-0.881
		c0.485,0,0.88,0.395,0.88,0.881S13.971,34.12,13.484,34.12z M17.558,33.73h-1.486c-0.272,0-0.495-0.224-0.495-0.496
		s0.223-0.495,0.495-0.495h1.486c0.273,0,0.496,0.223,0.496,0.495C18.053,33.508,17.831,33.73,17.558,33.73z M27.327,0h-11.62
		c-0.968,0-1.76,0.791-1.76,1.76v22.543c0,0.969,0.792,1.762,1.76,1.762h11.62c0.968,0,1.761-0.793,1.761-1.762V1.76
		C29.086,0.791,28.293,0,27.327,0z M19.658,1.27h3.717c0.118,0,0.213,0.096,0.213,0.213c0,0.117-0.095,0.213-0.213,0.213h-3.717
		c-0.118,0-0.214-0.096-0.214-0.213C19.444,1.364,19.541,1.27,19.658,1.27z M21.516,25.184c-0.485,0-0.879-0.394-0.879-0.881
		c0-0.486,0.394-0.88,0.879-0.88c0.486,0,0.881,0.394,0.881,0.88C22.397,24.79,22.002,25.184,21.516,25.184z M27.863,22.807H15.171
		V2.791h12.691V22.807z"/>
</g>
<g>
</g>
<g>
</g>
<g>
</g>
<g>
</g>
<g>
</g>
<g>
</g>
<g>
</g>
<g>
</g>
<g>
</g>
<g>
</g>
<g>
</g>
<g>
</g>
<g>
</g>
<g>
</g>
<g>
</g>
</svg>
